<mxfile host="app.diagrams.net" modified="2022-01-21T09:57:27.481Z" agent="5.0 (Windows NT 10.0; Win64; x64) AppleWebKit/537.36 (KHTML, like Gecko) Chrome/97.0.4692.71 Safari/537.36 Edg/97.0.1072.62" etag="kMir1iVW-cks0h3ushjp" version="16.4.2" type="github">
  <diagram id="kgpKYQtTHZ0yAKxKKP6v" name="Page-1">
    <mxGraphModel dx="815" dy="449" grid="1" gridSize="10" guides="1" tooltips="1" connect="1" arrows="1" fold="1" page="1" pageScale="1" pageWidth="850" pageHeight="1100" math="0" shadow="0">
      <root>
        <mxCell id="0" />
        <mxCell id="1" parent="0" />
        <mxCell id="3nuBFxr9cyL0pnOWT2aG-1" value="h5" style="shape=umlLifeline;perimeter=lifelinePerimeter;container=1;collapsible=0;recursiveResize=0;rounded=0;shadow=0;strokeWidth=1;" parent="1" vertex="1">
          <mxGeometry x="120" y="80" width="100" height="300" as="geometry" />
        </mxCell>
        <mxCell id="3nuBFxr9cyL0pnOWT2aG-2" value="" style="points=[];perimeter=orthogonalPerimeter;rounded=0;shadow=0;strokeWidth=1;" parent="3nuBFxr9cyL0pnOWT2aG-1" vertex="1">
          <mxGeometry x="45" y="55" width="5" height="235" as="geometry" />
        </mxCell>
        <mxCell id="3nuBFxr9cyL0pnOWT2aG-5" value="c控制层" style="shape=umlLifeline;perimeter=lifelinePerimeter;container=1;collapsible=0;recursiveResize=0;rounded=0;shadow=0;strokeWidth=1;" parent="1" vertex="1">
          <mxGeometry x="300" y="80" width="100" height="300" as="geometry" />
        </mxCell>
        <mxCell id="3nuBFxr9cyL0pnOWT2aG-6" value="" style="points=[];perimeter=orthogonalPerimeter;rounded=0;shadow=0;strokeWidth=1;" parent="3nuBFxr9cyL0pnOWT2aG-5" vertex="1">
          <mxGeometry x="45" y="70" width="15" height="220" as="geometry" />
        </mxCell>
        <mxCell id="3nuBFxr9cyL0pnOWT2aG-8" value="" style="verticalAlign=bottom;endArrow=block;entryX=0;entryY=0;shadow=0;strokeWidth=1;" parent="1" source="3nuBFxr9cyL0pnOWT2aG-2" target="3nuBFxr9cyL0pnOWT2aG-6" edge="1">
          <mxGeometry relative="1" as="geometry">
            <mxPoint x="275" y="160" as="sourcePoint" />
          </mxGeometry>
        </mxCell>
        <mxCell id="wPpCNE25jD52Qubzsvsr-1" value="scn" style="text;html=1;align=center;verticalAlign=middle;resizable=0;points=[];autosize=1;strokeColor=none;fillColor=none;" vertex="1" parent="1">
          <mxGeometry x="235" y="130" width="30" height="20" as="geometry" />
        </mxCell>
        <mxCell id="wPpCNE25jD52Qubzsvsr-2" value="前置" style="shape=umlLifeline;perimeter=lifelinePerimeter;container=1;collapsible=0;recursiveResize=0;rounded=0;shadow=0;strokeWidth=1;" vertex="1" parent="1">
          <mxGeometry x="480" y="80" width="105" height="300" as="geometry" />
        </mxCell>
        <mxCell id="wPpCNE25jD52Qubzsvsr-3" value="" style="points=[];perimeter=orthogonalPerimeter;rounded=0;shadow=0;strokeWidth=1;" vertex="1" parent="wPpCNE25jD52Qubzsvsr-2">
          <mxGeometry x="45" y="80" width="15" height="210" as="geometry" />
        </mxCell>
        <mxCell id="wPpCNE25jD52Qubzsvsr-10" value="1，用户未注册&lt;br&gt;2，用户已注册，未领券&lt;br&gt;3，用户已注册已领券" style="rounded=1;whiteSpace=wrap;html=1;" vertex="1" parent="wPpCNE25jD52Qubzsvsr-2">
          <mxGeometry x="45" y="90" width="60" height="140" as="geometry" />
        </mxCell>
        <mxCell id="wPpCNE25jD52Qubzsvsr-4" value="" style="verticalAlign=bottom;endArrow=block;entryX=0;entryY=0;shadow=0;strokeWidth=1;" edge="1" parent="1">
          <mxGeometry relative="1" as="geometry">
            <mxPoint x="360" y="170" as="sourcePoint" />
            <mxPoint x="520" y="170.0000000000001" as="targetPoint" />
          </mxGeometry>
        </mxCell>
        <mxCell id="wPpCNE25jD52Qubzsvsr-5" value="scn" style="text;html=1;align=center;verticalAlign=middle;resizable=0;points=[];autosize=1;strokeColor=none;fillColor=none;" vertex="1" parent="1">
          <mxGeometry x="425" y="150" width="30" height="20" as="geometry" />
        </mxCell>
        <mxCell id="wPpCNE25jD52Qubzsvsr-6" value="用户" style="shape=umlLifeline;perimeter=lifelinePerimeter;container=1;collapsible=0;recursiveResize=0;rounded=0;shadow=0;strokeWidth=1;" vertex="1" parent="1">
          <mxGeometry x="650" y="80" width="100" height="300" as="geometry" />
        </mxCell>
        <mxCell id="wPpCNE25jD52Qubzsvsr-7" value="" style="points=[];perimeter=orthogonalPerimeter;rounded=0;shadow=0;strokeWidth=1;" vertex="1" parent="wPpCNE25jD52Qubzsvsr-6">
          <mxGeometry x="45" y="80" width="10" height="160" as="geometry" />
        </mxCell>
        <mxCell id="wPpCNE25jD52Qubzsvsr-8" value="券" style="shape=umlLifeline;perimeter=lifelinePerimeter;container=1;collapsible=0;recursiveResize=0;rounded=0;shadow=0;strokeWidth=1;" vertex="1" parent="1">
          <mxGeometry x="820" y="80" width="100" height="300" as="geometry" />
        </mxCell>
        <mxCell id="wPpCNE25jD52Qubzsvsr-9" value="" style="points=[];perimeter=orthogonalPerimeter;rounded=0;shadow=0;strokeWidth=1;" vertex="1" parent="wPpCNE25jD52Qubzsvsr-8">
          <mxGeometry x="45" y="80" width="10" height="160" as="geometry" />
        </mxCell>
        <mxCell id="wPpCNE25jD52Qubzsvsr-15" style="edgeStyle=orthogonalEdgeStyle;rounded=0;orthogonalLoop=1;jettySize=auto;html=1;strokeColor=#EA6B66;" edge="1" parent="1" source="wPpCNE25jD52Qubzsvsr-10" target="wPpCNE25jD52Qubzsvsr-6">
          <mxGeometry relative="1" as="geometry" />
        </mxCell>
        <mxCell id="wPpCNE25jD52Qubzsvsr-16" value="2，已注册未领券" style="text;html=1;align=center;verticalAlign=middle;resizable=0;points=[];autosize=1;strokeColor=none;fillColor=none;" vertex="1" parent="1">
          <mxGeometry x="580" y="210" width="110" height="20" as="geometry" />
        </mxCell>
        <mxCell id="wPpCNE25jD52Qubzsvsr-17" style="edgeStyle=orthogonalEdgeStyle;rounded=0;orthogonalLoop=1;jettySize=auto;html=1;exitX=0;exitY=0.75;exitDx=0;exitDy=0;fillColor=#67AB9F;strokeColor=#67AB9F;" edge="1" parent="1" source="wPpCNE25jD52Qubzsvsr-10" target="3nuBFxr9cyL0pnOWT2aG-5">
          <mxGeometry relative="1" as="geometry" />
        </mxCell>
        <mxCell id="wPpCNE25jD52Qubzsvsr-18" style="edgeStyle=orthogonalEdgeStyle;rounded=0;orthogonalLoop=1;jettySize=auto;html=1;fillColor=#67AB9F;strokeColor=#67AB9F;" edge="1" parent="1" source="3nuBFxr9cyL0pnOWT2aG-6" target="3nuBFxr9cyL0pnOWT2aG-1">
          <mxGeometry relative="1" as="geometry" />
        </mxCell>
        <mxCell id="wPpCNE25jD52Qubzsvsr-19" style="edgeStyle=orthogonalEdgeStyle;rounded=0;orthogonalLoop=1;jettySize=auto;html=1;entryX=1;entryY=0.5;entryDx=0;entryDy=0;strokeColor=#EA6B66;fillColor=#EA6B66;" edge="1" parent="1" source="wPpCNE25jD52Qubzsvsr-7" target="wPpCNE25jD52Qubzsvsr-10">
          <mxGeometry relative="1" as="geometry" />
        </mxCell>
        <mxCell id="wPpCNE25jD52Qubzsvsr-20" style="edgeStyle=orthogonalEdgeStyle;rounded=0;orthogonalLoop=1;jettySize=auto;html=1;strokeColor=#EA6B66;fillColor=#EA6B66;" edge="1" parent="1" source="wPpCNE25jD52Qubzsvsr-7" target="wPpCNE25jD52Qubzsvsr-8">
          <mxGeometry relative="1" as="geometry" />
        </mxCell>
        <mxCell id="wPpCNE25jD52Qubzsvsr-22" style="edgeStyle=orthogonalEdgeStyle;rounded=0;orthogonalLoop=1;jettySize=auto;html=1;strokeColor=#EA6B66;fillColor=#EA6B66;" edge="1" parent="1" source="wPpCNE25jD52Qubzsvsr-10" target="3nuBFxr9cyL0pnOWT2aG-6">
          <mxGeometry relative="1" as="geometry" />
        </mxCell>
        <mxCell id="wPpCNE25jD52Qubzsvsr-23" style="edgeStyle=orthogonalEdgeStyle;rounded=0;orthogonalLoop=1;jettySize=auto;html=1;entryX=1.086;entryY=0.249;entryDx=0;entryDy=0;entryPerimeter=0;strokeColor=#000000;fillColor=#EA6B66;exitX=0;exitY=0.214;exitDx=0;exitDy=0;exitPerimeter=0;" edge="1" parent="1" source="wPpCNE25jD52Qubzsvsr-10" target="3nuBFxr9cyL0pnOWT2aG-6">
          <mxGeometry relative="1" as="geometry" />
        </mxCell>
        <mxCell id="wPpCNE25jD52Qubzsvsr-24" style="edgeStyle=orthogonalEdgeStyle;rounded=0;orthogonalLoop=1;jettySize=auto;html=1;entryX=0.971;entryY=0.725;entryDx=0;entryDy=0;entryPerimeter=0;strokeColor=#000000;fillColor=#EA6B66;exitX=0.5;exitY=0.228;exitDx=0;exitDy=0;exitPerimeter=0;" edge="1" parent="1" source="3nuBFxr9cyL0pnOWT2aG-6" target="3nuBFxr9cyL0pnOWT2aG-2">
          <mxGeometry relative="1" as="geometry">
            <mxPoint x="290" y="186" as="sourcePoint" />
          </mxGeometry>
        </mxCell>
        <mxCell id="wPpCNE25jD52Qubzsvsr-25" style="edgeStyle=orthogonalEdgeStyle;rounded=0;orthogonalLoop=1;jettySize=auto;html=1;strokeColor=#000000;fillColor=#EA6B66;" edge="1" parent="1" source="3nuBFxr9cyL0pnOWT2aG-2">
          <mxGeometry relative="1" as="geometry">
            <mxPoint x="310" y="330" as="targetPoint" />
            <Array as="points">
              <mxPoint x="180" y="330" />
              <mxPoint x="180" y="330" />
            </Array>
          </mxGeometry>
        </mxCell>
      </root>
    </mxGraphModel>
  </diagram>
</mxfile>
